<svg width="182" height="26" viewBox="0 0 182 26" fill="none" xmlns="http://www.w3.org/2000/svg">
<path fill-rule="evenodd" clip-rule="evenodd" d="M140.54 7.81887H143.814L144.598 4.20656C144.605 4.19949 144.61 4.19406 144.617 4.18644L149.449 2.60103C149.483 2.59016 149.516 2.62006 149.509 2.6554L148.403 7.81887H152.443C152.471 7.81887 152.493 7.84496 152.486 7.87324L151.795 11.1381C151.787 11.1762 151.755 11.2028 151.716 11.2028H147.672L146.096 18.8412C145.934 19.5871 145.894 19.7926 145.796 20.3548C145.615 21.3998 146.651 21.9033 147.681 21.9033C148.471 21.9033 149.028 21.6445 149.587 21.4199C149.61 21.4107 149.634 21.4308 149.629 21.4547L148.776 25.5047C148.771 25.5281 148.752 25.5471 148.728 25.5536C147.954 25.7526 147.289 25.8815 146.517 25.8815C143.411 25.8815 141.218 24.6631 141.218 21.2601C141.218 19.8916 141.494 18.5541 141.798 17.1476L143.097 11.2028H139.825C139.798 11.2028 139.778 11.1778 139.783 11.1512L140.5 7.85149C140.504 7.83192 140.521 7.81887 140.54 7.81887ZM68.0408 7.81887H71.3147L72.0994 4.20656C72.1065 4.19949 72.1108 4.19406 72.1173 4.18644L76.9504 2.60103C76.9845 2.59016 77.0176 2.62006 77.0106 2.6554L75.9037 7.81887H79.9439C79.9721 7.81887 79.9938 7.84496 79.9878 7.87324L79.2964 11.1381C79.2888 11.1762 79.2557 11.2028 79.2178 11.2028H75.1738L73.5973 18.8412C73.4357 19.5871 73.395 19.7926 73.2974 20.3548C73.1157 21.3998 74.1526 21.9033 75.1825 21.9033C75.9721 21.9033 76.5295 21.6445 77.0887 21.4199C77.1109 21.4107 77.1348 21.4308 77.1293 21.4547L76.2768 25.5047C76.2719 25.5281 76.253 25.5471 76.2296 25.5536C75.4547 25.7526 74.7909 25.8815 74.0187 25.8815C70.9118 25.8815 68.7187 24.6631 68.7187 21.2601C68.7187 19.8916 68.9947 18.5541 69.3001 17.1476L70.5978 11.2028H67.3261C67.2989 11.2028 67.2789 11.1778 67.2848 11.1512L68.0007 7.85149C68.005 7.83192 68.0213 7.81887 68.0408 7.81887ZM168.242 14.1187C168.242 15.4094 168.077 16.6669 167.821 17.9164C167.811 17.9669 167.766 18.0028 167.715 18.0028H157.245C157.188 18.0028 157.141 17.9598 157.137 17.9038C157.087 17.134 157.165 16.214 157.601 14.975C157.616 14.9315 157.658 14.9016 157.703 14.9016H163.727C163.78 14.9016 163.826 14.8608 163.834 14.8075C163.89 14.434 163.918 14.0871 163.918 13.7125C163.918 11.8514 162.939 10.8054 161.049 10.8054C158.384 10.8054 157.029 12.3777 156.162 14.6031C155.701 15.6894 155.564 16.7507 155.553 17.9338C155.553 17.9338 155.563 18.484 155.563 18.6433H155.568C155.793 21.3878 157.204 22.2496 160.097 22.2496C161.826 22.2496 163.78 21.8984 165.406 21.2193C165.561 21.1546 165.726 21.2824 165.699 21.4482L165.135 24.8147C165.121 24.8974 165.062 24.9653 164.982 24.9893C163.267 25.4998 161.409 25.7271 159.597 25.7271C154.591 25.7271 151.217 23.2984 151.217 18.1159C151.217 12.7002 155.411 7.48395 161.116 7.48395C165.411 7.48395 168.242 9.67939 168.242 14.1187ZM114.064 22.4948C117.451 22.4948 118.494 20.1596 119.202 17.3504H117.618C115.419 17.3504 111.779 17.7223 111.779 20.6658C111.779 21.8793 112.929 22.4948 114.064 22.4948ZM118.494 22.9977L118.484 23.0526C116.933 25.0121 115.621 26 113.122 26C109.976 26 107.455 24.3173 107.455 21.1013C107.455 15.3414 113.866 14.9016 118.127 14.9016H119.671C119.693 14.9016 119.714 14.8863 119.719 14.8641C119.851 14.3997 119.851 13.9066 119.851 13.4086C119.851 11.6535 117.952 11.1468 116.372 11.1468C114.401 11.1468 112.512 11.6372 110.745 12.4533C110.708 12.4707 110.668 12.4397 110.676 12.4006L111.277 9.00303C111.29 8.92583 111.345 8.86113 111.419 8.83558C113.306 8.18695 115.229 7.82702 117.211 7.82702C120.695 7.82702 123.962 9.11503 123.962 13.208C123.961 15.5725 122.266 22.2398 121.846 25.6314C121.843 25.6564 121.821 25.6738 121.796 25.6738H118.082C118.051 25.6738 118.027 25.6455 118.033 25.6145L118.494 22.9977ZM16.8931 0.430062H21.243C21.2951 0.430062 21.3341 0.478995 21.3233 0.530646L20.4181 4.70295C20.4095 4.74101 20.3764 4.7682 20.3379 4.7682H15.9756C15.923 4.7682 15.8839 4.71927 15.8948 4.66761L16.8129 0.494763C16.821 0.457248 16.8546 0.430062 16.8931 0.430062ZM15.334 7.82648L19.5082 7.80092C19.615 7.80038 19.6942 7.89825 19.6719 8.00264L15.9197 25.608C15.9105 25.6531 15.8704 25.6852 15.8243 25.6852H11.5536C11.4609 25.6852 11.392 25.5993 11.4115 25.5085L15.1632 7.96621C15.1805 7.88465 15.2516 7.82648 15.334 7.82648ZM33.0935 11.8759C33.0729 11.9439 32.9948 11.9732 32.9341 11.9363C32.0636 11.4116 30.927 11.1294 29.7333 11.1294C26.121 11.1294 24.127 14.4541 24.127 17.7331C24.127 20.0025 24.6547 21.8527 27.7599 21.8527C28.8293 21.8527 30.4356 21.6597 31.5918 21.1203C31.6455 21.0948 31.7057 21.1388 31.6965 21.1981L31.1385 25.06C29.7485 25.7347 28.2848 25.7885 26.8022 25.7885C22.307 25.7885 19.4029 22.7819 19.4029 18.2795C19.4029 12.1809 23.4198 7.5443 29.665 7.5443C31.351 7.5443 32.9769 7.84116 34.1982 8.22446L33.0935 11.8759ZM38.4076 0H42.7303C42.791 0 42.836 0.056001 42.8235 0.115264L39.8403 14.2839L46.3296 7.83844C46.3372 7.83083 46.3475 7.82702 46.3572 7.82702H52.1209C52.1556 7.82702 52.1729 7.86997 52.1474 7.8939L43.7807 15.8862C43.7683 15.8982 43.7655 15.9177 43.7737 15.933L49.0829 25.5466C49.0975 25.5727 49.0785 25.6047 49.0492 25.6047H44.0454C44.0307 25.6047 44.0177 25.596 44.0112 25.583L39.3989 16.1445H39.3376L37.337 25.5759C37.3332 25.5939 37.3175 25.6069 37.2991 25.6069H32.9541C32.9297 25.6069 32.9113 25.5841 32.9167 25.5602L38.3007 0.0869924C38.3116 0.0364289 38.356 0 38.4076 0ZM0.757411 7.81887H4.03077L4.81549 4.20656C4.82199 4.19949 4.82742 4.19406 4.83393 4.18644L9.66697 2.60103C9.70059 2.59016 9.73367 2.62006 9.72608 2.6554L8.62032 7.81887H12.66C12.6887 7.81887 12.7099 7.84496 12.7039 7.87324L12.0124 11.1381C12.0043 11.1762 11.9718 11.2028 11.9333 11.2028H7.88929L6.3128 18.8412C6.1512 19.5871 6.11106 19.7926 6.01345 20.3548C5.83177 21.3998 6.86867 21.9033 7.89905 21.9033C8.68865 21.9033 9.24505 21.6445 9.80471 21.4199C9.82748 21.4107 9.85081 21.4308 9.84593 21.4547L8.99342 25.5047C8.988 25.5281 8.96956 25.5471 8.9457 25.5536C8.17129 25.7526 7.50642 25.8815 6.73471 25.8815C3.62838 25.8815 1.43475 24.6631 1.43475 21.2601C1.43475 19.8916 1.71133 18.5541 2.0161 17.1476L3.31439 11.2028H0.0426523C0.0155372 11.2028 -0.0045341 11.1778 0.000888685 11.1512L0.716737 7.85149C0.721075 7.83192 0.737888 7.81887 0.757411 7.81887ZM66.6216 14.179C66.6216 15.4703 66.4578 16.7278 66.2013 17.9778C66.1905 18.0278 66.146 18.0642 66.0956 18.0642H55.6252C55.5683 18.0642 55.5217 18.0213 55.5179 17.9647C55.4669 17.1949 55.545 16.2749 55.981 15.0353C55.9967 14.9924 56.0379 14.9625 56.0835 14.9625H62.1069C62.1606 14.9625 62.2067 14.9217 62.2143 14.869C62.2701 14.4943 62.2983 14.1486 62.2983 13.7734C62.2983 11.9123 61.3195 10.8663 59.429 10.8663C56.7641 10.8663 55.4094 12.4381 54.5423 14.664C54.0808 15.7497 53.9436 16.811 53.9333 17.9941C53.9333 17.9941 53.9425 18.5454 53.9425 18.7042H53.9473C54.1724 21.4482 55.5846 22.3105 58.4778 22.3105C60.2061 22.3105 62.1606 21.9598 63.7859 21.2807C63.9404 21.216 64.1064 21.3433 64.0787 21.5096L63.5158 24.8756C63.5017 24.9577 63.4426 25.0262 63.3623 25.0502C61.6465 25.5602 59.7891 25.7885 57.9772 25.7885C52.9712 25.7885 49.597 23.3593 49.597 18.1773C49.597 12.761 53.7912 7.5443 59.4962 7.5443C63.7918 7.5443 66.6216 9.74028 66.6216 14.179ZM81.9483 9.87838C82.0687 9.22975 82.2297 8.45662 82.3344 7.90531C82.3436 7.85856 82.3837 7.82702 82.4315 7.82702H86.4532C86.515 7.82702 86.5617 7.88302 86.5508 7.94392L86.1539 10.1497L86.1582 10.1274C87.3789 8.34516 89.4023 7.5443 91.5363 7.5443C93.5921 7.5443 95.7234 8.76272 95.9577 10.8668H96.0249C97.1681 8.59308 99.7067 7.5443 102.137 7.5443C104.738 7.5443 106.971 9.67939 106.971 12.3234C106.971 13.8729 106.57 15.6334 106.196 17.0557L104.352 25.5074C104.341 25.5531 104.301 25.5857 104.254 25.5857H99.9279C99.865 25.5857 99.8178 25.527 99.8314 25.465L101.663 16.8899C101.898 15.8351 102.235 14.216 102.235 13.1666C102.235 11.8748 101.265 11.0625 100.112 11.0625C96.9761 11.0625 96.1952 14.7194 95.6204 17.0948L93.8107 25.5069C93.8004 25.5525 93.7603 25.5857 93.7136 25.5857H89.3941C89.3312 25.5857 89.2841 25.527 89.2976 25.4655L91.1219 16.8899C91.3665 15.8351 91.7027 14.216 91.7033 13.1666C91.7033 11.8748 90.7223 11.0625 89.5747 11.0625C86.5096 11.0625 85.6522 14.7515 85.0817 17.0948L83.2758 25.5069C83.2661 25.5525 83.2254 25.5857 83.1793 25.5857H78.8485C78.7855 25.5857 78.7384 25.5275 78.7508 25.4661L81.9483 9.87838ZM137.413 11.4893C137.402 11.5279 137.36 11.547 137.324 11.529C136.796 11.2691 135.6 10.9277 134.367 10.9277C133.024 10.9277 131.357 11.2387 131.357 12.6208C131.357 14.8238 137.233 15.6339 137.233 19.8998C137.233 24.4363 133.273 25.789 129.381 25.789C127.59 25.789 125.771 25.5302 124.134 24.7653C124.109 24.7539 124.096 24.7261 124.103 24.6995L125.08 21.0595C125.086 21.0382 125.109 21.0285 125.128 21.0388C126.397 21.7456 127.64 22.392 129.375 22.392C130.903 22.392 132.499 21.9674 132.499 20.5506C132.499 17.7326 126.616 17.4651 126.616 13.1019C126.616 8.99814 130.571 7.54484 134.163 7.54484C135.778 7.54484 137.436 7.83083 138.34 8.07114C138.37 8.0793 138.385 8.10865 138.377 8.13801L137.413 11.4893ZM170.984 10.2823C171.117 9.58533 171.258 8.79697 171.381 8.03145C171.395 7.93957 171.474 7.87269 171.567 7.87269H175.51C175.624 7.87269 175.709 7.97545 175.689 8.08745L175.096 11.2387L175.131 10.9462C175.132 10.9337 175.136 10.9217 175.14 10.9109C176.004 9.05088 178.218 7.54484 180.304 7.54484C180.846 7.54484 181.408 7.57638 181.915 7.68621C181.974 7.69871 182.01 7.75797 181.997 7.81615L181.101 12.0336C181.088 12.0956 181.027 12.1325 180.966 12.113C180.483 11.964 179.893 11.8759 179.36 11.8759C176.152 11.8759 174.596 14.751 174.015 17.5662L172.416 25.4221C172.406 25.4726 172.362 25.5085 172.311 25.5085H168.083C167.973 25.5085 167.892 25.4085 167.914 25.3003L170.984 10.2823Z" fill="#000"/>
</svg>
