<svg width="126" height="18" viewBox="0 0 126 18" fill="none" xmlns="http://www.w3.org/2000/svg">
<path fill-rule="evenodd" clip-rule="evenodd" d="M97.2971 5.41306H99.5632L100.106 2.91224C100.111 2.90734 100.115 2.90358 100.119 2.89831L103.465 1.80072C103.488 1.79319 103.511 1.81389 103.506 1.83836L102.741 5.41306H105.537C105.557 5.41306 105.572 5.43113 105.567 5.4507L105.089 7.71101C105.083 7.73735 105.061 7.7558 105.034 7.7558H102.235L101.143 13.0439C101.031 13.5603 101.003 13.7026 100.936 14.0918C100.81 14.8152 101.528 15.1638 102.241 15.1638C102.788 15.1638 103.173 14.9846 103.561 14.8292C103.576 14.8228 103.592 14.8367 103.589 14.8533L102.999 17.6571C102.995 17.6733 102.982 17.6865 102.966 17.691C102.43 17.8287 101.969 17.9179 101.435 17.9179C99.2847 17.9179 97.766 17.0744 97.766 14.7185C97.766 13.7711 97.9575 12.8452 98.1681 11.8714L99.0673 7.7558H96.8022C96.7834 7.7558 96.7692 7.73848 96.7729 7.72004L97.2689 5.43565C97.2719 5.4221 97.2835 5.41306 97.2971 5.41306ZM47.1052 5.41306H49.3717L49.915 2.91224C49.9199 2.90734 49.9229 2.90358 49.9274 2.89831L53.2733 1.80072C53.297 1.79319 53.3199 1.81389 53.315 1.83836L52.5487 5.41306H55.3458C55.3653 5.41306 55.3803 5.43113 55.3762 5.4507L54.8975 7.71101C54.8922 7.73735 54.8693 7.7558 54.8431 7.7558H52.0434L50.952 13.0439C50.8401 13.5603 50.8119 13.7026 50.7444 14.0918C50.6186 14.8152 51.3364 15.1638 52.0494 15.1638C52.596 15.1638 52.982 14.9846 53.3691 14.8292C53.3845 14.8228 53.401 14.8367 53.3972 14.8533L52.807 17.6571C52.8037 17.6733 52.7905 17.6865 52.7744 17.691C52.2379 17.8287 51.7783 17.9179 51.2437 17.9179C49.0928 17.9179 47.5745 17.0744 47.5745 14.7185C47.5745 13.7711 47.7656 12.8452 47.977 11.8714L48.8754 7.7558H46.6103C46.5916 7.7558 46.5777 7.73848 46.5818 7.72004L47.0774 5.43565C47.0804 5.4221 47.0917 5.41306 47.1052 5.41306ZM116.475 9.77445C116.475 10.668 116.361 11.5387 116.184 12.4036C116.177 12.4386 116.146 12.4635 116.111 12.4635H108.862C108.823 12.4635 108.79 12.4337 108.787 12.395C108.753 11.862 108.807 11.2251 109.108 10.3673C109.119 10.3372 109.148 10.3165 109.179 10.3165H113.349C113.386 10.3165 113.418 10.2882 113.424 10.2514C113.463 9.99277 113.482 9.75262 113.482 9.49328C113.482 8.20485 112.804 7.48065 111.495 7.48065C109.65 7.48065 108.712 8.56921 108.112 10.1098C107.793 10.8619 107.698 11.5966 107.691 12.4157C107.691 12.4157 107.697 12.7966 107.697 12.9069H107.701C107.856 14.807 108.834 15.4036 110.837 15.4036C112.033 15.4036 113.386 15.1604 114.512 14.6903C114.619 14.6455 114.733 14.7339 114.715 14.8488L114.325 17.1794C114.315 17.2367 114.274 17.2837 114.218 17.3003C113.031 17.6537 111.744 17.811 110.49 17.811C107.025 17.811 104.688 16.1296 104.688 12.5418C104.688 8.79241 107.592 5.1812 111.542 5.1812C114.516 5.1812 116.475 6.70112 116.475 9.77445ZM78.9675 15.5733C81.3122 15.5733 82.0342 13.9567 82.5245 12.0118H81.4282C79.9058 12.0118 77.3854 12.2693 77.3854 14.3071C77.3854 15.1472 78.1817 15.5733 78.9675 15.5733ZM82.0342 15.9215L82.0274 15.9595C80.9536 17.3161 80.0451 18 78.3154 18C76.1371 18 74.3916 16.835 74.3916 14.6086C74.3916 10.621 78.8305 10.3165 81.7804 10.3165H82.8489C82.8646 10.3165 82.8789 10.3059 82.8827 10.2905C82.9735 9.96905 82.9735 9.62765 82.9735 9.28287C82.9735 8.06784 81.6591 7.71703 80.5654 7.71703C79.2007 7.71703 77.893 8.05654 76.6695 8.62152C76.6439 8.63357 76.6165 8.61212 76.6218 8.58501L77.0378 6.23287C77.0472 6.17942 77.0851 6.13463 77.1365 6.11694C78.4427 5.66789 79.7736 5.41871 81.1459 5.41871C83.5581 5.41871 85.8198 6.31041 85.8198 9.14398C85.8194 10.781 84.6454 15.3968 84.3548 17.7448C84.3525 17.7621 84.3379 17.7742 84.3206 17.7742H81.7488C81.7274 17.7742 81.7109 17.7546 81.715 17.7331L82.0342 15.9215ZM11.6953 0.297735H14.7067C14.7427 0.297735 14.7698 0.331612 14.7623 0.36737L14.1356 3.25589C14.1296 3.28224 14.1067 3.30106 14.0801 3.30106H11.06C11.0236 3.30106 10.9966 3.26718 11.0041 3.23143L11.6397 0.342528C11.6453 0.316557 11.6686 0.297735 11.6953 0.297735ZM10.6159 5.41833L13.5056 5.40064C13.5796 5.40026 13.6344 5.46802 13.619 5.54029L11.0213 17.7286C11.015 17.7599 10.9872 17.7821 10.9553 17.7821H7.99864C7.93444 17.7821 7.88676 17.7226 7.90028 17.6597L10.4976 5.51507C10.5096 5.45861 10.5588 5.41833 10.6159 5.41833ZM22.9109 8.22178C22.8966 8.26884 22.8425 8.28916 22.8005 8.26357C22.1979 7.90034 21.411 7.70498 20.5846 7.70498C18.0838 7.70498 16.7033 10.0067 16.7033 12.2768C16.7033 13.8479 17.0686 15.1288 19.2184 15.1288C19.9588 15.1288 21.0708 14.9952 21.8713 14.6218C21.9084 14.6041 21.9501 14.6346 21.9437 14.6756L21.5574 17.3492C20.5951 17.8163 19.5818 17.8536 18.5554 17.8536C15.4433 17.8536 13.4328 15.7721 13.4328 12.6551C13.4328 8.43295 16.2137 5.22298 20.5373 5.22298C21.7046 5.22298 22.8301 5.42849 23.6756 5.69386L22.9109 8.22178ZM26.5898 0H29.5825C29.6246 0 29.6557 0.0387699 29.6471 0.0797979L27.5818 9.88888L32.0743 5.42661C32.0796 5.42134 32.0867 5.41871 32.0935 5.41871H36.0837C36.1077 5.41871 36.1197 5.44844 36.1021 5.465L30.3097 10.9981C30.3011 11.0064 30.2992 11.02 30.3049 11.0305L33.9804 17.6861C33.9906 17.7041 33.9774 17.7264 33.9572 17.7264H30.493C30.4828 17.7264 30.4738 17.7203 30.4693 17.7113L27.2761 11.1769H27.2337L25.8487 17.7064C25.8461 17.7188 25.8352 17.7279 25.8224 17.7279H22.8144C22.7975 17.7279 22.7847 17.7121 22.7885 17.6955L26.5159 0.0602255C26.5234 0.02522 26.5542 0 26.5898 0ZM0.524361 5.41306H2.79053L3.3338 2.91224C3.3383 2.90734 3.34206 2.90358 3.34657 2.89831L6.69252 1.80072C6.71579 1.79319 6.7387 1.81389 6.73344 1.83836L5.96791 5.41306H8.76459C8.78449 5.41306 8.79913 5.43113 8.795 5.4507L8.31631 7.71101C8.31068 7.73735 8.28815 7.7558 8.26149 7.7558H5.46182L4.3704 13.0439C4.25852 13.5603 4.23073 13.7026 4.16315 14.0918C4.03738 14.8152 4.75523 15.1638 5.46857 15.1638C6.01522 15.1638 6.40042 14.9846 6.78787 14.8292C6.80364 14.8228 6.81979 14.8367 6.81641 14.8533L6.22622 17.6571C6.22246 17.6733 6.2097 17.6865 6.19318 17.691C5.65704 17.8287 5.19675 17.9179 4.66249 17.9179C2.51196 17.9179 0.993285 17.0744 0.993285 14.7185C0.993285 13.7711 1.18476 12.8452 1.39576 11.8714L2.29458 7.7558H0.0295285C0.0107565 7.7558 -0.00313899 7.73848 0.000615243 7.72004L0.496202 5.43565C0.499206 5.4221 0.510846 5.41306 0.524361 5.41306ZM46.1226 9.81623C46.1226 10.7102 46.0093 11.5808 45.8317 12.4462C45.8242 12.4808 45.7934 12.506 45.7585 12.506H38.5098C38.4704 12.506 38.4381 12.4763 38.4354 12.4371C38.4002 11.9041 38.4542 11.2673 38.7561 10.4091C38.767 10.3793 38.7955 10.3586 38.827 10.3586H42.9971C43.0342 10.3586 43.0662 10.3304 43.0714 10.2939C43.1101 10.0345 43.1296 9.79515 43.1296 9.53543C43.1296 8.247 42.4519 7.5228 41.1431 7.5228C39.2982 7.5228 38.3604 8.61099 37.76 10.152C37.4405 10.9037 37.3455 11.6384 37.3384 12.4575C37.3384 12.4575 37.3448 12.8391 37.3448 12.949H37.3482C37.504 14.8487 38.4816 15.4457 40.4846 15.4457C41.6812 15.4457 43.0342 15.2029 44.1595 14.7328C44.2665 14.688 44.3813 14.7761 44.3622 14.8913L43.9725 17.2216C43.9627 17.2784 43.9218 17.3259 43.8662 17.3424C42.6783 17.6955 41.3924 17.8536 40.1381 17.8536C36.6724 17.8536 34.3364 16.1718 34.3364 12.5843C34.3364 8.83457 37.24 5.22298 41.1897 5.22298C44.1636 5.22298 46.1226 6.74327 46.1226 9.81623ZM56.7334 6.83888C56.8168 6.38983 56.9283 5.85458 57.0007 5.47291C57.0071 5.44054 57.0349 5.41871 57.0679 5.41871H59.8522C59.895 5.41871 59.9273 5.45748 59.9198 5.49963L59.645 7.0267L59.648 7.01127C60.4931 5.77742 61.8939 5.22298 63.3713 5.22298C64.7946 5.22298 66.2701 6.0665 66.4322 7.52318H66.4788C67.2702 5.94906 69.0277 5.22298 70.71 5.22298C72.511 5.22298 74.0571 6.70112 74.0571 8.53157C74.0571 9.60432 73.7789 10.8231 73.5202 11.8078L72.2434 17.659C72.2362 17.6906 72.2084 17.7132 72.1761 17.7132H69.1809C69.1373 17.7132 69.1046 17.6725 69.114 17.6296L70.3823 11.693C70.5445 10.9628 70.7784 9.84183 70.7784 9.11537C70.7784 8.22103 70.1063 7.65869 69.3085 7.65869C67.1373 7.65869 66.5967 10.1904 66.1987 11.8349L64.9459 17.6586C64.9387 17.6902 64.911 17.7132 64.8787 17.7132H61.8882C61.8447 17.7132 61.812 17.6725 61.8214 17.63L63.0844 11.693C63.2537 10.9628 63.4865 9.84183 63.4869 9.11537C63.4869 8.22103 62.8077 7.65869 62.0133 7.65869C59.8913 7.65869 59.2977 10.2126 58.9027 11.8349L57.6525 17.6586C57.6457 17.6902 57.6176 17.7132 57.5857 17.7132H54.5874C54.5438 17.7132 54.5112 17.6729 54.5198 17.6304L56.7334 6.83888ZM95.1319 7.95416C95.1244 7.98089 95.0955 7.99406 95.0703 7.98164C94.7046 7.80172 93.8768 7.56534 93.0234 7.56534C92.0934 7.56534 90.9397 7.78064 90.9397 8.73746C90.9397 10.2626 95.0076 10.8235 95.0076 13.7768C95.0076 16.9175 92.2661 17.854 89.5712 17.854C88.3318 17.854 87.0722 17.6748 85.9388 17.1452C85.9215 17.1373 85.9129 17.1181 85.9174 17.0996L86.5939 14.5796C86.598 14.5649 86.6142 14.5582 86.6273 14.5653C87.5059 15.0546 88.3664 15.5022 89.5674 15.5022C90.625 15.5022 91.7304 15.2082 91.7304 14.2273C91.7304 12.2764 87.6572 12.0912 87.6572 9.07058C87.6572 6.22948 90.3953 5.22335 92.8822 5.22335C93.9999 5.22335 95.148 5.42134 95.7739 5.58771C95.7945 5.59336 95.805 5.61368 95.7994 5.63401L95.1319 7.95416ZM118.373 7.11855C118.465 6.636 118.563 6.09021 118.648 5.56024C118.658 5.49662 118.713 5.45033 118.777 5.45033H121.507C121.586 5.45033 121.645 5.52147 121.631 5.599L121.22 7.78064L121.244 7.57814C121.245 7.56948 121.248 7.5612 121.251 7.55367C121.849 6.26599 123.382 5.22335 124.826 5.22335C125.201 5.22335 125.59 5.24519 125.941 5.32122C125.982 5.32988 126.007 5.3709 125.998 5.41118L125.378 8.33094C125.369 8.37385 125.326 8.39945 125.284 8.3859C124.95 8.28276 124.541 8.22178 124.172 8.22178C121.952 8.22178 120.874 10.2122 120.472 12.1612L119.365 17.5999C119.358 17.6349 119.328 17.6597 119.292 17.6597H116.365C116.289 17.6597 116.233 17.5905 116.248 17.5156L118.373 7.11855Z" fill="#000"/>
</svg>
